<svg xmlns="http://www.w3.org/2000/svg" viewBox="0 0 341.49 72.39"><defs><style>.cls-1{fill:#002745;}.cls-2{fill:#dada4a;}</style></defs><g id="Layer_2" data-name="Layer 2"><g id="Capa_1" data-name="Capa 1"><path class="cls-1" d="M115.32,12.72H99.11l2-9.55H145.2l-1.95,9.55H127.11l-8.25,41.1H107.14Z"/><path class="cls-1" d="M195.2,3.17,185.07,53.82H173.35l4.12-20.62H154.53l-4.12,20.62h-11.8L148.74,3.17h11.8l-4,19.9H179.5l4-19.9Z"/><path class="cls-1" d="M208.56,12.58l-2.18,11H229.9l-1.81,9.12H204.5l-2.31,11.72h27.64l-2,9.4H188.66L198.79,3.17h38.27l-1.95,9.41Z"/><path class="cls-2" d="M282,33.52a22.16,22.16,0,0,1-.88,2.07,19.16,19.16,0,0,1-17.72,10.75q-7.19,0-11.15-3.75a13,13,0,0,1-3.91-9.1q-6,0-12-.08l-1,0a24.17,24.17,0,0,0,3.24,12.4,21.68,21.68,0,0,0,9.33,8.46,32.25,32.25,0,0,0,14.4,3,36,36,0,0,0,17.83-4.35A31.13,31.13,0,0,0,292.26,41a31.8,31.8,0,0,0,3.09-7.56Q288.69,33.5,282,33.52Z"/><path class="cls-2" d="M241,25h8.5a23.23,23.23,0,0,1,1.33-3.32,19.19,19.19,0,0,1,17.71-10.76q7.2,0,11.16,3.76a13.27,13.27,0,0,1,4,10.08c0,.1,0,.19,0,.29l13,.05c0-.35,0-.7,0-1.05a24.13,24.13,0,0,0-3.24-12.57A21.77,21.77,0,0,0,284,3,32.07,32.07,0,0,0,269.6,0a36,36,0,0,0-17.83,4.35,31.11,31.11,0,0,0-12.1,11.9,31.82,31.82,0,0,0-3.4,8.74Z"/><path class="cls-1" d="M111.49,61.68a4.14,4.14,0,0,1,1.28.9l-.59.58a2.92,2.92,0,0,0-1.05-.76,3.34,3.34,0,0,0-1.27-.23,2.82,2.82,0,0,0-1.82.56,1.75,1.75,0,0,0-.7,1.45,1.46,1.46,0,0,0,.47,1.16,5.16,5.16,0,0,0,1.69.82,5.13,5.13,0,0,1,2,1.07,2.37,2.37,0,0,1,.68,1.8,3.27,3.27,0,0,1-.42,1.6,3.22,3.22,0,0,1-1.32,1.26,4.5,4.5,0,0,1-2.22.5,4.38,4.38,0,0,1-1.84-.36A4.18,4.18,0,0,1,105,71l.59-.56a3.41,3.41,0,0,0,2.66,1.12,3.47,3.47,0,0,0,1.65-.36,2.33,2.33,0,0,0,1.32-2.15,1.72,1.72,0,0,0-.48-1.28,4.43,4.43,0,0,0-1.68-.88A5.56,5.56,0,0,1,107,65.83a2.13,2.13,0,0,1-.62-1.62,2.6,2.6,0,0,1,.41-1.37A2.92,2.92,0,0,1,108,61.79a4,4,0,0,1,1.86-.41A4.09,4.09,0,0,1,111.49,61.68Z"/><path class="cls-1" d="M119.62,64.07a7.08,7.08,0,0,1,1.25.5L120,70.44a2.91,2.91,0,0,0,0,.47,1,1,0,0,0,.12.52.85.85,0,0,0,.39.32l-.26.64a1.5,1.5,0,0,1-.83-.46,1.54,1.54,0,0,1-.26-1A3.56,3.56,0,0,1,118,72a2.59,2.59,0,0,1-1.4.4,2.27,2.27,0,0,1-1.89-.85,3.59,3.59,0,0,1-.68-2.31,7.33,7.33,0,0,1,.44-2.45,4.78,4.78,0,0,1,1.38-2,3.48,3.48,0,0,1,2.37-.83A5.19,5.19,0,0,1,119.62,64.07Zm-3.18,1.28a4.19,4.19,0,0,0-1.08,1.78,7,7,0,0,0-.33,2.1,3,3,0,0,0,.45,1.79,1.52,1.52,0,0,0,1.29.61,2.16,2.16,0,0,0,1.32-.44,4.49,4.49,0,0,0,1.11-1.28l.7-4.9a3.54,3.54,0,0,0-1.62-.37A2.53,2.53,0,0,0,116.44,65.35Z"/><path class="cls-1" d="M124,70.85a1.09,1.09,0,0,0,0,.22.56.56,0,0,0,.13.41.51.51,0,0,0,.4.13,1.82,1.82,0,0,0,.59-.12l.21.68a2.25,2.25,0,0,1-.94.22,1.32,1.32,0,0,1-.94-.32,1.26,1.26,0,0,1-.34-.94,3.35,3.35,0,0,1,0-.42l1.4-9.95.9-.13Z"/><path class="cls-1" d="M128.06,71.88a2,2,0,0,1-.51-1.45,2.71,2.71,0,0,1,0-.56l.81-5.8h.9l-.81,5.77a3.19,3.19,0,0,0,0,.49c0,.88.39,1.31,1.18,1.31a2.27,2.27,0,0,0,1.6-.71,7,7,0,0,0,1.33-1.87l.7-5h.9L133,72.22h-.75l.22-2.07a5.24,5.24,0,0,1-1.31,1.64,2.7,2.7,0,0,1-1.71.6A1.9,1.9,0,0,1,128.06,71.88Z"/><path class="cls-1" d="M143.65,60.76,142,72.22h-.78l.13-1.65a4.39,4.39,0,0,1-1.15,1.32,2.54,2.54,0,0,1-1.55.5,2.19,2.19,0,0,1-1.84-.86,3.75,3.75,0,0,1-.66-2.35,7.82,7.82,0,0,1,.39-2.4,4.82,4.82,0,0,1,1.24-2A3,3,0,0,1,140,63.9,2.46,2.46,0,0,1,142.14,65l.62-4.37Zm-5.25,4.62a4.15,4.15,0,0,0-1,1.77,7.9,7.9,0,0,0-.29,2.08,3,3,0,0,0,.44,1.78,1.45,1.45,0,0,0,1.24.62,2.12,2.12,0,0,0,1.46-.56,6.7,6.7,0,0,0,1.26-1.67l.52-3.55a3,3,0,0,0-.8-.88,1.93,1.93,0,0,0-1.13-.32A2.22,2.22,0,0,0,138.4,65.38Z"/><path class="cls-1" d="M155.79,62a1.91,1.91,0,0,1,.69,1.5,2.22,2.22,0,0,1-.64,1.62,8.52,8.52,0,0,1-2.19,1.46l2.76,3a22,22,0,0,0,1.37-2.69l.81.29a16.87,16.87,0,0,1-1.67,3l1.62,1.76-.73.52-1.47-1.64A5.32,5.32,0,0,1,154.72,72a4.51,4.51,0,0,1-2,.42,3,3,0,0,1-2.11-.72,2.45,2.45,0,0,1-.79-1.86A3.06,3.06,0,0,1,150.4,68a6,6,0,0,1,2-1.57,6.56,6.56,0,0,1-.9-1.27,2.65,2.65,0,0,1-.3-1.22,2.46,2.46,0,0,1,.33-1.25,2.41,2.41,0,0,1,1-.94,3.08,3.08,0,0,1,1.5-.35A2.69,2.69,0,0,1,155.79,62Zm-4.59,6.3a2.7,2.7,0,0,0-.45,1.54,1.7,1.7,0,0,0,.54,1.32,2.14,2.14,0,0,0,1.5.5,3.52,3.52,0,0,0,1.65-.37,4.72,4.72,0,0,0,1.39-1.08l-2.94-3.24A4.74,4.74,0,0,0,151.2,68.27Zm1.39-5.64a1.84,1.84,0,0,0-.48,1.29,2.43,2.43,0,0,0,.23,1,4.54,4.54,0,0,0,.8,1.12,7.67,7.67,0,0,0,1.9-1.26,1.84,1.84,0,0,0,.54-1.31,1.25,1.25,0,0,0-.44-1A1.73,1.73,0,0,0,154,62.1,1.77,1.77,0,0,0,152.59,62.63Z"/><path class="cls-1" d="M172.21,72.22H171l-3.67-9.83a36,36,0,0,1-.41,3.91l-.84,5.92h-.89l1.51-10.67h1.22l3.67,9.8a29.72,29.72,0,0,1,.32-3.35l.9-6.45h.89Z"/><path class="cls-1" d="M176.28,71.88a2,2,0,0,1-.5-1.45,3.6,3.6,0,0,1,0-.56l.82-5.8h.9l-.81,5.77a3.19,3.19,0,0,0,0,.49c0,.88.39,1.31,1.18,1.31a2.27,2.27,0,0,0,1.6-.71,7,7,0,0,0,1.33-1.87l.7-5h.9l-1.15,8.15h-.75l.22-2.07a5.12,5.12,0,0,1-1.32,1.64,2.66,2.66,0,0,1-1.7.6A1.94,1.94,0,0,1,176.28,71.88Z"/><path class="cls-1" d="M185.73,70.21q0,.29,0,.39c0,.67.32,1,1,1a2.88,2.88,0,0,0,1.33-.39l.31.67a3.4,3.4,0,0,1-1.75.5,1.82,1.82,0,0,1-1.29-.44,1.68,1.68,0,0,1-.46-1.27,3.06,3.06,0,0,1,0-.47l.76-5.4h-1.37l.11-.74h1.38l.46-2,.71-.08-.29,2h2.1l-.22.74h-2Z"/><path class="cls-1" d="M194.92,64l-.25.86a2.19,2.19,0,0,0-.66-.09,1.88,1.88,0,0,0-1.47.7,6.71,6.71,0,0,0-1.14,2.1l-.67,4.64h-.91L191,64.07h.78l-.21,2c.64-1.43,1.5-2.15,2.59-2.15A2.57,2.57,0,0,1,194.92,64Z"/><path class="cls-1" d="M197.66,64.07l-1.15,8.15h-.91l1.15-8.15Zm-.55-2.43a.58.58,0,0,1-.17-.43.66.66,0,0,1,.21-.51.72.72,0,0,1,.52-.21.65.65,0,0,1,.46.17.57.57,0,0,1,.17.42.7.7,0,0,1-.21.52.76.76,0,0,1-.53.2A.64.64,0,0,1,197.11,61.64Z"/><path class="cls-1" d="M205.91,64.74l-.51.58a2.57,2.57,0,0,0-.77-.49,2.45,2.45,0,0,0-.93-.16,2.37,2.37,0,0,0-1.78.7,4,4,0,0,0-1,1.73,7,7,0,0,0-.31,2.05,2.71,2.71,0,0,0,.54,1.84,1.92,1.92,0,0,0,1.5.61,3,3,0,0,0,1-.18,4.14,4.14,0,0,0,1-.51l.39.64a4,4,0,0,1-2.45.84,2.77,2.77,0,0,1-2.15-.86,3.56,3.56,0,0,1-.77-2.43,7.2,7.2,0,0,1,.42-2.38,4.7,4.7,0,0,1,1.33-2,3.33,3.33,0,0,1,2.3-.81A3,3,0,0,1,205.91,64.74Z"/><path class="cls-1" d="M209.12,64.07,208,72.22h-.91l1.16-8.15Zm-.55-2.43a.58.58,0,0,1-.17-.43.66.66,0,0,1,.21-.51.72.72,0,0,1,.53-.21.64.64,0,0,1,.45.17.57.57,0,0,1,.17.42.7.7,0,0,1-.21.52.75.75,0,0,1-.52.2A.65.65,0,0,1,208.57,61.64Z"/><path class="cls-1" d="M211.9,71.52a3.56,3.56,0,0,1-.77-2.43,7.27,7.27,0,0,1,.4-2.36,4.71,4.71,0,0,1,1.32-2,3.41,3.41,0,0,1,2.34-.82,2.77,2.77,0,0,1,2.18.86,3.5,3.5,0,0,1,.77,2.41,7.53,7.53,0,0,1-.4,2.35,4.72,4.72,0,0,1-1.32,2,3.37,3.37,0,0,1-2.35.83A2.75,2.75,0,0,1,211.9,71.52Zm4-.61a4.15,4.15,0,0,0,1-1.75,7.32,7.32,0,0,0,.3-2,2.86,2.86,0,0,0-.52-1.84,1.83,1.83,0,0,0-1.49-.62,2.42,2.42,0,0,0-1.83.73,4.08,4.08,0,0,0-1,1.76,7.34,7.34,0,0,0-.3,2,2.76,2.76,0,0,0,.53,1.83,1.86,1.86,0,0,0,1.51.63A2.38,2.38,0,0,0,215.9,70.91ZM217,60l.31.82-3.21,1.32-.23-.51Z"/><path class="cls-1" d="M226.33,64.42a2,2,0,0,1,.5,1.46,4,4,0,0,1-.05.59L226,72.22h-.9l.81-5.72a3.3,3.3,0,0,0,0-.51c0-.88-.4-1.32-1.19-1.32-1,0-2.05.89-3,2.67L221,72.22h-.91l1.16-8.15h.78l-.22,2a5.34,5.34,0,0,1,1.41-1.63,2.79,2.79,0,0,1,1.67-.57A1.87,1.87,0,0,1,226.33,64.42Z"/><path class="cls-1" d="M302.19,34.87l-1.74,8.73H312l-.42,2H300l-1.87,9.43h-2.32l4.45-22.23h15.24l-.41,2Z"/><path class="cls-1" d="M318.41,32.84h2.32l-4.45,22.23H314Z"/><path class="cls-1" d="M330.91,34.87h-7.84l.41-2h18l-.44,2h-7.82l-4,20.2h-2.32Z"/><path class="cls-1" d="M36.68,49.62q.95-5.07,1.91-10.15a17.15,17.15,0,0,1-3.11,2.3,20.45,20.45,0,0,1-10.33,2.5H13.7L20,12.81H30.08q7,0,10.73,3.23a10.22,10.22,0,0,1,1.9,2.22Q43.91,12.1,45.15,6c-.13-.07-.25-.14-.39-.2A31.8,31.8,0,0,0,31.39,3.17H10.15L0,53.92H24.79a38.81,38.81,0,0,0,11.32-1.59C36.29,51.43,36.49,50.53,36.68,49.62Z"/><path class="cls-1" d="M86,31.08a20.5,20.5,0,0,1-10.65,7.18L84.2,53.92H71.81l-8-14.21h-10L51,53.92H39.19L49.34,3.17H70q9.44,0,14.65,4.14T89.86,18.9A19.6,19.6,0,0,1,86,31.08ZM74.74,27.67Q78,25,78,20a6.31,6.31,0,0,0-2.47-5.44c-1.64-1.2-4-1.81-7-1.81H59.19L55.64,30.36h10Q71.52,30.36,74.74,27.67Z"/><path class="cls-1" d="M89.8,52.65A6.31,6.31,0,0,1,87.92,48a7.25,7.25,0,0,1,2.17-5.44,7.43,7.43,0,0,1,5.37-2.1,6.52,6.52,0,0,1,4.75,1.82A6.28,6.28,0,0,1,102.05,47a7.19,7.19,0,0,1-2.21,5.4,7.31,7.31,0,0,1-5.25,2.14A6.57,6.57,0,0,1,89.8,52.65Z"/></g></g></svg>